<svg id="Layer_1" enable-background="new 0 0 512 512" height="512" viewBox="0 0 512 512" width="512" xmlns="http://www.w3.org/2000/svg"><g><g><path d="m489.694 340.757c7.34-23.279 11.308-48.055 11.308-73.759 0-135.311-109.691-245.002-245.003-245.002s-245.001 109.691-245.001 245.002c0 25.704 3.967 50.48 11.308 73.759z" fill="#ff4155"/></g><path d="m456.637 164.516v-123.165c0-22.838-18.513-41.351-41.351-41.351h-318.572c-22.838 0-41.352 18.513-41.352 41.351v123.165z" fill="#167cc1"/><path d="m193.396 104.249c-29.958-10.343-20.643-38.386-20.643-38.386-4.331-4.331 0-8.581 0-8.581v-20.524c-4.134-4.134 0-8.581 0-8.581-16.934-14.915 0-28.177 0-28.177h-76.04c-22.837 0-41.351 18.513-41.351 41.351v123.165h133.792z" fill="#0e62a8"/><path d="m83.54 441.005c44.274 43.883 105.198 70.995 172.46 70.995s128.186-27.112 172.46-70.995c0-123.713 0-357.604 0-377.228h-344.92z" fill="#73c3f9"/><path d="m83.54 441.004c25.379 25.155 56.235 44.784 90.614 56.97v-42.841c-19.868-15.459 0-30.828 0-30.828-28.868-22.954 0-46.654 0-46.654l19.243-273.401c-29.958-10.343-20.643-38.386-20.643-38.386-.705-.705-1.161-1.405-1.463-2.087h-87.751z" fill="#4fabf7"/><g fill="#ffb332"><path d="m444.602 423.378h-377.204c9.567 11.525 20.173 22.154 31.669 31.755h119.774c5.686 0 10.938 3.112 13.593 8.14 4.497 8.516 13.439 14.32 23.739 14.32s19.242-5.804 23.739-14.32c2.655-5.028 7.908-8.14 13.594-8.14h119.427c11.496-9.6 22.102-20.229 31.669-31.755z"/><path d="m52.742 146.422c-17.271 1.53-30.935 16.138-30.935 33.79v158.952c7.145 23.215 17.642 44.962 30.935 64.668z"/><path d="m490.193 339.163v-158.952c0-17.534-13.48-32.07-30.588-33.763v256.857c13.126-19.568 23.505-41.132 30.588-64.142z"/></g><path d="m461.231 400.834v-15.763c0 5.654-5.74 9.535-10.965 7.372-62.302-25.795-132.824-24.173-194.093 4.865v26.996h187.646c6.254-7.458 12.069-15.295 17.412-23.47z" fill="#d3dcfb"/><path d="m62.08 392.443c-5.224 2.163-10.965-1.718-10.965-7.372v16.289c5.248 7.986 10.947 15.646 17.066 22.945h187.992v-26.996c-61.269-29.039-131.791-30.661-194.093-4.866z" fill="#bec8f7"/><path d="m415.286 28.177h-318.572c-7.246 0-13.175 5.929-13.175 13.175v24.512h344.921v-24.513c0-7.246-5.928-13.174-13.174-13.174z" fill="#2a428c"/><path d="m172.754 57.282v-20.524c-4.134-4.134 0-8.581 0-8.581h-76.039c-7.246 0-13.175 5.929-13.175 13.175v24.512h89.214c-4.331-4.332 0-8.582 0-8.582z" fill="#1c2e7a"/><g><ellipse cx="116.008" cy="47.02" fill="#ff4155" rx="10.262" ry="10.262" transform="matrix(.707 -.707 .707 .707 .73 95.802)"/></g><g><path d="m154.643 47.02c0 5.667-4.594 10.262-10.262 10.262s-10.262-4.595-10.262-10.262 4.595-10.262 10.262-10.262c5.668 0 10.262 4.595 10.262 10.262z" fill="#ffdd40"/></g><g><ellipse cx="172.754" cy="47.02" fill="#38c674" rx="10.262" ry="10.262" transform="matrix(.924 -.383 .383 .924 -4.844 69.689)"/></g><g><path d="m319.682 54.847h-102.967c-4.322 0-7.827-3.504-7.827-7.827s3.504-7.827 7.827-7.827h102.967c4.323 0 7.827 3.504 7.827 7.827s-3.504 7.827-7.827 7.827z" fill="#3c58a0"/></g><g><path d="m403.326 54.847h-8.923c-4.323 0-7.827-3.504-7.827-7.827s3.504-7.827 7.827-7.827h8.923c4.323 0 7.827 3.504 7.827 7.827s-3.505 7.827-7.827 7.827z" fill="#3c58a0"/></g><g><path d="m372.305 54.847h-8.922c-4.323 0-7.827-3.504-7.827-7.827s3.504-7.827 7.827-7.827h8.922c4.323 0 7.827 3.504 7.827 7.827s-3.504 7.827-7.827 7.827z" fill="#3c58a0"/></g><path d="m456.506 121.805c-63.802-28.561-137.009-27.835-200.333 2.177v275.837c61.269-29.038 131.791-30.66 194.093-4.865 5.224 2.163 10.965-1.718 10.965-7.372v-258.495c0-3.146-1.853-5.997-4.725-7.282z" fill="#e9efff"/><path d="m55.84 121.805c63.802-28.561 137.009-27.835 200.333 2.177v275.837c-61.269-29.038-131.791-30.66-194.093-4.865-5.225 2.163-10.965-1.718-10.965-7.372v-258.495c0-3.146 1.853-5.997 4.725-7.282z" fill="#d3dcfb"/><g><path d="m153.644 332.929v-172.753c0-25.765 16.67-47.813 39.752-55.926-46.148-7.769-94.04-1.925-137.557 17.555-2.871 1.286-4.725 4.137-4.725 7.283v258.495c0 5.654 5.741 9.535 10.965 7.372 35.752-14.802 74.21-20.558 112.074-17.304-12.538-10.888-20.509-26.914-20.509-44.722z" fill="#bec8f7"/></g><g><path d="m431.893 164.516c-.793 0-1.599-.121-2.395-.377-6.695-2.15-13.572-4.016-20.442-5.546-4.219-.94-6.878-5.121-5.939-9.34.94-4.219 5.119-6.881 9.341-5.939 7.335 1.633 14.678 3.625 21.826 5.921 4.116 1.322 6.38 5.73 5.059 9.846-1.066 3.319-4.141 5.435-7.45 5.435z" fill="#bec8f7"/></g><g><path d="m80.453 164.516c-3.309 0-6.384-2.116-7.45-5.435-1.322-4.116.943-8.524 5.059-9.846 7.148-2.296 14.492-4.289 21.826-5.921 4.222-.951 8.402 1.719 9.341 5.939.94 4.219-1.719 8.401-5.938 9.34-6.87 1.53-13.748 3.396-20.442 5.546-.796.256-1.603.377-2.396.377z" fill="#a8b7ef"/></g><g><path d="m226.835 196.163c-.793 0-1.599-.121-2.395-.377-46.322-14.876-95.284-14.878-141.591-.008-4.116 1.32-8.524-.943-9.845-5.059-1.322-4.115.943-8.523 5.059-9.845 49.439-15.878 101.711-15.874 151.164.008 4.115 1.322 6.38 5.729 5.059 9.845-1.067 3.32-4.142 5.436-7.451 5.436z" fill="#a8b7ef"/></g><g><path d="m285.511 196.163c-3.309 0-6.384-2.116-7.45-5.436-1.322-4.115.943-8.523 5.058-9.845 49.454-15.881 101.725-15.886 151.164-.008 4.115 1.322 6.38 5.73 5.059 9.845-1.322 4.116-5.731 6.38-9.845 5.059-46.308-14.87-95.27-14.869-141.591.008-.795.256-1.601.377-2.395.377z" fill="#bec8f7"/></g><g><path d="m226.835 227.802c-.793 0-1.599-.121-2.395-.377-46.321-14.878-95.284-14.879-141.591-.009-4.114 1.325-8.524-.944-9.845-5.059-1.322-4.115.943-8.523 5.059-9.845 49.438-15.878 101.711-15.875 151.164.009 4.116 1.322 6.38 5.73 5.059 9.845-1.067 3.32-4.142 5.436-7.451 5.436z" fill="#a8b7ef"/></g><g><path d="m285.511 227.802c-3.309 0-6.384-2.116-7.45-5.436-1.322-4.115.943-8.523 5.058-9.845 49.455-15.884 101.727-15.886 151.164-.009 4.115 1.322 6.38 5.729 5.059 9.845-1.322 4.116-5.731 6.382-9.845 5.059-46.307-14.87-95.269-14.868-141.591.009-.795.256-1.601.377-2.395.377z" fill="#bec8f7"/></g><g><path d="m226.835 259.44c-.793 0-1.599-.121-2.395-.377-46.322-14.876-95.284-14.878-141.591-.008-4.116 1.323-8.524-.943-9.845-5.059-1.322-4.115.943-8.523 5.059-9.845 49.439-15.877 101.711-15.873 151.164.008 4.115 1.322 6.38 5.73 5.059 9.845-1.067 3.32-4.142 5.436-7.451 5.436z" fill="#a8b7ef"/></g><g><path d="m285.511 259.44c-3.31 0-6.384-2.116-7.45-5.436-1.322-4.115.943-8.523 5.058-9.845 49.456-15.881 101.727-15.885 151.164-.008 4.115 1.322 6.38 5.73 5.059 9.845-1.322 4.116-5.731 6.383-9.845 5.059-46.306-14.872-95.268-14.868-141.591.008-.795.256-1.602.377-2.395.377z" fill="#bec8f7"/></g><g><path d="m226.834 291.079c-.793 0-1.599-.121-2.395-.377-46.322-14.877-95.284-14.88-141.591-.009-4.116 1.319-8.524-.944-9.845-5.059-1.322-4.115.943-8.523 5.059-9.845 49.438-15.878 101.711-15.875 151.164.009 4.116 1.322 6.38 5.73 5.059 9.845-1.066 3.32-4.141 5.436-7.451 5.436z" fill="#a8b7ef"/></g><g><path d="m285.511 291.079c-3.309 0-6.384-2.116-7.45-5.436-1.322-4.115.943-8.523 5.058-9.845 49.455-15.883 101.726-15.886 151.164-.009 4.115 1.322 6.38 5.73 5.059 9.845-1.322 4.117-5.731 6.379-9.845 5.059-46.306-14.871-95.268-14.869-141.591.009-.795.255-1.601.377-2.395.377z" fill="#bec8f7"/></g><g><path d="m226.835 322.716c-.793 0-1.599-.121-2.395-.377-46.322-14.876-95.284-14.878-141.591-.008-4.116 1.32-8.524-.944-9.845-5.059-1.322-4.115.943-8.523 5.059-9.845 49.439-15.877 101.711-15.874 151.164.008 4.115 1.322 6.38 5.73 5.059 9.845-1.067 3.321-4.142 5.436-7.451 5.436z" fill="#a8b7ef"/></g><g><path d="m285.511 322.716c-3.31 0-6.384-2.116-7.45-5.436-1.322-4.115.943-8.523 5.058-9.845 49.456-15.881 101.727-15.885 151.164-.008 4.115 1.322 6.38 5.73 5.059 9.845-1.322 4.116-5.731 6.38-9.845 5.059-46.306-14.871-95.268-14.869-141.591.008-.795.256-1.602.377-2.395.377z" fill="#bec8f7"/></g><g><path d="m226.835 354.355c-.793 0-1.599-.121-2.395-.377-46.321-14.877-95.284-14.88-141.591-.009-4.114 1.327-8.524-.943-9.845-5.059-1.322-4.115.943-8.523 5.059-9.845 49.438-15.877 101.711-15.876 151.164.009 4.116 1.322 6.38 5.73 5.059 9.845-1.067 3.321-4.142 5.436-7.451 5.436z" fill="#a8b7ef"/></g><g><path d="m285.511 354.355c-3.309 0-6.384-2.116-7.45-5.436-1.322-4.115.943-8.523 5.058-9.845 49.455-15.883 101.727-15.886 151.164-.009 4.115 1.322 6.38 5.73 5.059 9.845-1.322 4.116-5.731 6.382-9.845 5.059-46.307-14.87-95.269-14.867-141.591.009-.795.256-1.601.377-2.395.377z" fill="#bec8f7"/></g></g></svg>